<svg width="137" height="23" viewBox="0 0 137 23" fill="none" xmlns="http://www.w3.org/2000/svg">
<path d="M10.9752 7.48C10.9752 8.29333 10.7885 9.04 10.4152 9.72C10.0418 10.3867 9.46849 10.9267 8.69516 11.34C7.92182 11.7533 6.96182 11.96 5.81516 11.96H3.69516V17H0.275156V2.96H5.81516C6.93516 2.96 7.88182 3.15333 8.65516 3.54C9.42849 3.92667 10.0085 4.46 10.3952 5.14C10.7818 5.82 10.9752 6.6 10.9752 7.48ZM5.55516 9.24C6.20849 9.24 6.69516 9.08667 7.01516 8.78C7.33516 8.47333 7.49516 8.04 7.49516 7.48C7.49516 6.92 7.33516 6.48667 7.01516 6.18C6.69516 5.87333 6.20849 5.72 5.55516 5.72H3.69516V9.24H5.55516ZM12.0756 11.4C12.0756 10.2533 12.289 9.24667 12.7156 8.38C13.1556 7.51333 13.749 6.84667 14.4956 6.38C15.2423 5.91333 16.0756 5.68 16.9956 5.68C17.7823 5.68 18.469 5.84 19.0556 6.16C19.6556 6.48 20.1156 6.9 20.4356 7.42V5.84H23.8556V17H20.4356V15.42C20.1023 15.94 19.6356 16.36 19.0356 16.68C18.449 17 17.7623 17.16 16.9756 17.16C16.069 17.16 15.2423 16.9267 14.4956 16.46C13.749 15.98 13.1556 15.3067 12.7156 14.44C12.289 13.56 12.0756 12.5467 12.0756 11.4ZM20.4356 11.42C20.4356 10.5667 20.1956 9.89333 19.7156 9.4C19.249 8.90667 18.6756 8.66 17.9956 8.66C17.3156 8.66 16.7356 8.90667 16.2556 9.4C15.789 9.88 15.5556 10.5467 15.5556 11.4C15.5556 12.2533 15.789 12.9333 16.2556 13.44C16.7356 13.9333 17.3156 14.18 17.9956 14.18C18.6756 14.18 19.249 13.9333 19.7156 13.44C20.1956 12.9467 20.4356 12.2733 20.4356 11.42ZM29.7498 7.42C30.0698 6.9 30.5298 6.48 31.1298 6.16C31.7298 5.84 32.4165 5.68 33.1898 5.68C34.1098 5.68 34.9432 5.91333 35.6898 6.38C36.4365 6.84667 37.0232 7.51333 37.4498 8.38C37.8898 9.24667 38.1098 10.2533 38.1098 11.4C38.1098 12.5467 37.8898 13.56 37.4498 14.44C37.0232 15.3067 36.4365 15.98 35.6898 16.46C34.9432 16.9267 34.1098 17.16 33.1898 17.16C32.4032 17.16 31.7165 17.0067 31.1298 16.7C30.5432 16.38 30.0832 15.96 29.7498 15.44V17H26.3298V2.2H29.7498V7.42ZM34.6298 11.4C34.6298 10.5467 34.3898 9.88 33.9098 9.4C33.4432 8.90667 32.8632 8.66 32.1698 8.66C31.4898 8.66 30.9098 8.90667 30.4298 9.4C29.9632 9.89333 29.7298 10.5667 29.7298 11.42C29.7298 12.2733 29.9632 12.9467 30.4298 13.44C30.9098 13.9333 31.4898 14.18 32.1698 14.18C32.8498 14.18 33.4298 13.9333 33.9098 13.44C34.3898 12.9333 34.6298 12.2533 34.6298 11.4ZM43.3241 2.2V17H39.9041V2.2H43.3241ZM50.8825 17.16C49.7892 17.16 48.8025 16.9267 47.9225 16.46C47.0558 15.9933 46.3692 15.3267 45.8625 14.46C45.3692 13.5933 45.1225 12.58 45.1225 11.42C45.1225 10.2733 45.3758 9.26667 45.8825 8.4C46.3892 7.52 47.0825 6.84667 47.9625 6.38C48.8425 5.91333 49.8292 5.68 50.9225 5.68C52.0158 5.68 53.0025 5.91333 53.8825 6.38C54.7625 6.84667 55.4558 7.52 55.9625 8.4C56.4692 9.26667 56.7225 10.2733 56.7225 11.42C56.7225 12.5667 56.4625 13.58 55.9425 14.46C55.4358 15.3267 54.7358 15.9933 53.8425 16.46C52.9625 16.9267 51.9758 17.16 50.8825 17.16ZM50.8825 14.2C51.5358 14.2 52.0892 13.96 52.5425 13.48C53.0092 13 53.2425 12.3133 53.2425 11.42C53.2425 10.5267 53.0158 9.84 52.5625 9.36C52.1225 8.88 51.5758 8.64 50.9225 8.64C50.2558 8.64 49.7025 8.88 49.2625 9.36C48.8225 9.82667 48.6025 10.5133 48.6025 11.42C48.6025 12.3133 48.8158 13 49.2425 13.48C49.6825 13.96 50.2292 14.2 50.8825 14.2ZM72.8752 2.96V5.7H69.1552V17H65.7352V5.7H62.0152V2.96H72.8752ZM85.1116 11.24C85.1116 11.56 85.0916 11.8933 85.0516 12.24H77.3116C77.3649 12.9333 77.5849 13.4667 77.9716 13.84C78.3716 14.2 78.8582 14.38 79.4316 14.38C80.2849 14.38 80.8782 14.02 81.2116 13.3H84.8516C84.6649 14.0333 84.3249 14.6933 83.8316 15.28C83.3516 15.8667 82.7449 16.3267 82.0116 16.66C81.2782 16.9933 80.4582 17.16 79.5516 17.16C78.4582 17.16 77.4849 16.9267 76.6316 16.46C75.7782 15.9933 75.1116 15.3267 74.6316 14.46C74.1516 13.5933 73.9116 12.58 73.9116 11.42C73.9116 10.26 74.1449 9.24667 74.6116 8.38C75.0916 7.51333 75.7582 6.84667 76.6116 6.38C77.4649 5.91333 78.4449 5.68 79.5516 5.68C80.6316 5.68 81.5916 5.90667 82.4316 6.36C83.2716 6.81333 83.9249 7.46 84.3916 8.3C84.8716 9.14 85.1116 10.12 85.1116 11.24ZM81.6116 10.34C81.6116 9.75333 81.4116 9.28667 81.0116 8.94C80.6116 8.59333 80.1116 8.42 79.5116 8.42C78.9382 8.42 78.4516 8.58667 78.0516 8.92C77.6649 9.25333 77.4249 9.72667 77.3316 10.34H81.6116ZM88.6358 4.68C88.0358 4.68 87.5424 4.50667 87.1558 4.16C86.7824 3.8 86.5958 3.36 86.5958 2.84C86.5958 2.30667 86.7824 1.86667 87.1558 1.52C87.5424 1.16 88.0358 0.979999 88.6358 0.979999C89.2224 0.979999 89.7024 1.16 90.0758 1.52C90.4624 1.86667 90.6558 2.30667 90.6558 2.84C90.6558 3.36 90.4624 3.8 90.0758 4.16C89.7024 4.50667 89.2224 4.68 88.6358 4.68ZM90.3358 5.84V17H86.9158V5.84H90.3358ZM94.5142 4.68C93.9142 4.68 93.4209 4.50667 93.0342 4.16C92.6609 3.8 92.4742 3.36 92.4742 2.84C92.4742 2.30667 92.6609 1.86667 93.0342 1.52C93.4209 1.16 93.9142 0.979999 94.5142 0.979999C95.1009 0.979999 95.5809 1.16 95.9542 1.52C96.3409 1.86667 96.5342 2.30667 96.5342 2.84C96.5342 3.36 96.3409 3.8 95.9542 4.16C95.5809 4.50667 95.1009 4.68 94.5142 4.68ZM96.2342 18.44C96.2342 19.8133 95.8876 20.8 95.1942 21.4C94.5009 22.0133 93.5342 22.32 92.2942 22.32H90.9542V19.42H91.7742C92.1476 19.42 92.4142 19.3467 92.5742 19.2C92.7342 19.0533 92.8142 18.8133 92.8142 18.48V5.84H96.2342V18.44ZM109.213 11.24C109.213 11.56 109.193 11.8933 109.153 12.24H101.413C101.466 12.9333 101.686 13.4667 102.073 13.84C102.473 14.2 102.96 14.38 103.533 14.38C104.386 14.38 104.98 14.02 105.313 13.3H108.953C108.766 14.0333 108.426 14.6933 107.933 15.28C107.453 15.8667 106.846 16.3267 106.113 16.66C105.38 16.9933 104.56 17.16 103.653 17.16C102.56 17.16 101.586 16.9267 100.733 16.46C99.8798 15.9933 99.2131 15.3267 98.7331 14.46C98.2531 13.5933 98.0131 12.58 98.0131 11.42C98.0131 10.26 98.2465 9.24667 98.7131 8.38C99.1931 7.51333 99.8598 6.84667 100.713 6.38C101.566 5.91333 102.546 5.68 103.653 5.68C104.733 5.68 105.693 5.90667 106.533 6.36C107.373 6.81333 108.026 7.46 108.493 8.3C108.973 9.14 109.213 10.12 109.213 11.24ZM105.713 10.34C105.713 9.75333 105.513 9.28667 105.113 8.94C104.713 8.59333 104.213 8.42 103.613 8.42C103.04 8.42 102.553 8.58667 102.153 8.92C101.766 9.25333 101.526 9.72667 101.433 10.34H105.713ZM112.737 4.68C112.137 4.68 111.644 4.50667 111.257 4.16C110.884 3.8 110.697 3.36 110.697 2.84C110.697 2.30667 110.884 1.86667 111.257 1.52C111.644 1.16 112.137 0.979999 112.737 0.979999C113.324 0.979999 113.804 1.16 114.177 1.52C114.564 1.86667 114.757 2.30667 114.757 2.84C114.757 3.36 114.564 3.8 114.177 4.16C113.804 4.50667 113.324 4.68 112.737 4.68ZM114.437 5.84V17H111.017V5.84H114.437ZM120.336 7.7C120.736 7.08667 121.236 6.60667 121.836 6.26C122.436 5.9 123.102 5.72 123.836 5.72V9.34H122.896C122.042 9.34 121.402 9.52667 120.976 9.9C120.549 10.26 120.336 10.9 120.336 11.82V17H116.916V5.84H120.336V7.7ZM130.55 17.16C129.457 17.16 128.47 16.9267 127.59 16.46C126.724 15.9933 126.037 15.3267 125.53 14.46C125.037 13.5933 124.79 12.58 124.79 11.42C124.79 10.2733 125.044 9.26667 125.55 8.4C126.057 7.52 126.75 6.84667 127.63 6.38C128.51 5.91333 129.497 5.68 130.59 5.68C131.684 5.68 132.67 5.91333 133.55 6.38C134.43 6.84667 135.124 7.52 135.63 8.4C136.137 9.26667 136.39 10.2733 136.39 11.42C136.39 12.5667 136.13 13.58 135.61 14.46C135.104 15.3267 134.404 15.9933 133.51 16.46C132.63 16.9267 131.644 17.16 130.55 17.16ZM130.55 14.2C131.204 14.2 131.757 13.96 132.21 13.48C132.677 13 132.91 12.3133 132.91 11.42C132.91 10.5267 132.684 9.84 132.23 9.36C131.79 8.88 131.244 8.64 130.59 8.64C129.924 8.64 129.37 8.88 128.93 9.36C128.49 9.82667 128.27 10.5133 128.27 11.42C128.27 12.3133 128.484 13 128.91 13.48C129.35 13.96 129.897 14.2 130.55 14.2Z" fill="white"/>
</svg>
